<svg xmlns="http://www.w3.org/2000/svg" width="102.682" height="102.682" viewBox="0 0 102.682 102.682"><defs><style>.a{fill:#043163;}</style></defs><path class="a" d="M51.9.562A51.341,51.341,0,1,0,103.244,51.9,51.332,51.332,0,0,0,51.9.562ZM81.714,57.7a2.492,2.492,0,0,1-2.484,2.484H60.184V79.23A2.492,2.492,0,0,1,57.7,81.714H46.107a2.492,2.492,0,0,1-2.484-2.484V60.184H24.577A2.492,2.492,0,0,1,22.093,57.7V46.107a2.492,2.492,0,0,1,2.484-2.484H43.623V24.577a2.492,2.492,0,0,1,2.484-2.484H57.7a2.492,2.492,0,0,1,2.484,2.484V43.623H79.23a2.492,2.492,0,0,1,2.484,2.484Z" transform="translate(-0.563 -0.563)"/></svg>