<svg xmlns="http://www.w3.org/2000/svg" viewBox="0 0 228.57 56.34"><defs><style>.cls-1{font-size:29px;fill:#2a3c4a;font-family:CenturyGothic-Bold, Century Gothic;}.cls-2{font-weight:700;}.cls-3{font-size:20.67px;font-family:CenturyGothic, Century Gothic;}.cls-4{fill:#3c658b;}.cls-5{fill:#e3b05b;}.cls-6{fill:#c3535e;}.cls-7{fill:#8ac5d1;}</style></defs><title>Asset 14</title><g id="Layer_2" data-name="Layer 2"><g id="Layer_1-2" data-name="Layer 1"><text class="cls-1" transform="translate(81.25 25.2) scale(0.93 1)"><tspan class="cls-2">Hilma</tspan><tspan class="cls-3"><tspan x="0" y="24.8">tech for impact</tspan></tspan></text><path class="cls-4" d="M45.48,55.44a11.67,11.67,0,0,1-8.34-3.55L21,35.79A11.81,11.81,0,0,1,36.9,18.33a12,12,0,0,1,1.81-1.23l2.42,4.37a6.67,6.67,0,0,0-1.54,1.17L36.9,25.32l-2.7-2.7a6.8,6.8,0,0,0-4.83-2,6.81,6.81,0,0,0-4.8,11.64L40.69,48.37a6.51,6.51,0,0,0,9.17.32l2.1-2,3.44,3.64-2.11,2A11.32,11.32,0,0,1,45.48,55.44Z"/><path class="cls-5" d="M18.64,50.19,3.08,35.52A10.31,10.31,0,0,1,3,20.88L23.16.73,26.7,4.27,6.55,24.42a5.31,5.31,0,0,0,0,7.51L22.07,46.55Z"/><path class="cls-6" d="M28.6,55.27a11.48,11.48,0,0,1-7.89-3.13l-2.07-2,3.43-3.64,2.07,2a6.37,6.37,0,0,0,8.91-.1L49.22,32.28a6.81,6.81,0,0,0-4.8-11.64,6.93,6.93,0,0,0-3.29.83L38.72,17.1a11.81,11.81,0,0,1,14,18.71L36.61,51.91A11,11,0,0,1,28.6,55.27Z"/><path class="cls-7" d="M55.39,50.34,52,46.7,67.48,32.06A5.24,5.24,0,0,0,69,28.36a5.3,5.3,0,0,0-1.56-3.76L47.29,4.45,50.83.92,71,21.06a10.3,10.3,0,0,1,0,14.59Z"/><path class="cls-5" d="M18,11.92a2.51,2.51,0,0,1-1.77-4.27L23.16.73A2.5,2.5,0,0,1,26.7,4.27l-6.91,6.91A2.5,2.5,0,0,1,18,11.92Z"/><path class="cls-7" d="M55,11.14a2.48,2.48,0,0,1-1.76-.73l-6-6A2.5,2.5,0,0,1,50.83.92l6,6A2.5,2.5,0,0,1,55,11.14Z"/></g></g></svg>