<svg xmlns="http://www.w3.org/2000/svg" width="224.363" height="55.443" viewBox="0 0 224.363 55.443">
  <g id="Layer_2" data-name="Layer 2" transform="translate(0.01 -22.997)">
    <g id="Layer_1" data-name="Layer 1">
      <path id="Path_7" data-name="Path 7" d="M2.2-19.393H5.946v7.317h6.473v-7.317H16.15V0H12.419V-8.5H5.946V0H2.2Zm19.386-.857a2.2,2.2,0,0,1,1.624.686,2.277,2.277,0,0,1,.677,1.661,2.251,2.251,0,0,1-.67,1.641,2.175,2.175,0,0,1-1.6.679,2.205,2.205,0,0,1-1.637-.692,2.315,2.315,0,0,1-.677-1.681,2.213,2.213,0,0,1,.67-1.622A2.2,2.2,0,0,1,21.588-20.25Zm-1.8,5.906h3.6V0h-3.6Zm6.473-5.537h3.6V0h-3.6ZM33.1-14.344h3.6V-12.7a6.143,6.143,0,0,1,2.051-1.516,5.994,5.994,0,0,1,2.461-.5,4.573,4.573,0,0,1,2.427.659,4.764,4.764,0,0,1,1.741,1.925,5.812,5.812,0,0,1,2.1-1.925,5.739,5.739,0,0,1,2.724-.659A5.044,5.044,0,0,1,52.9-14a4.113,4.113,0,0,1,1.669,1.859,9.932,9.932,0,0,1,.508,3.731V0H51.456V-7.277a6.225,6.225,0,0,0-.606-3.3,2.076,2.076,0,0,0-1.819-.864,2.76,2.76,0,0,0-1.655.527,3.117,3.117,0,0,0-1.088,1.457,9.054,9.054,0,0,0-.356,2.986V0H42.306V-6.948a9.781,9.781,0,0,0-.284-2.788,2.522,2.522,0,0,0-.852-1.285,2.241,2.241,0,0,0-1.374-.422,2.708,2.708,0,0,0-1.632.534,3.185,3.185,0,0,0-1.1,1.5A9.25,9.25,0,0,0,36.7-6.381V0H33.1Zm35.991,0h3.6V0H69.1V-1.516A7.056,7.056,0,0,1,66.982-.073a5.915,5.915,0,0,1-2.3.442,6.384,6.384,0,0,1-4.806-2.156A7.519,7.519,0,0,1,57.85-7.146a7.705,7.705,0,0,1,1.962-5.445,6.251,6.251,0,0,1,4.767-2.123A6.058,6.058,0,0,1,67-14.225,6.612,6.612,0,0,1,69.1-12.762Zm-3.783,2.953a3.636,3.636,0,0,0-2.772,1.18,4.252,4.252,0,0,0-1.1,3.026,4.3,4.3,0,0,0,1.123,3.059,3.64,3.64,0,0,0,2.766,1.2,3.708,3.708,0,0,0,2.812-1.18A4.313,4.313,0,0,0,69.253-7.2a4.189,4.189,0,0,0-1.117-3.032A3.754,3.754,0,0,0,65.312-11.391ZM2.579,10.158h1.3v3.748h2.06v1.123H3.878V24h-1.3V15.029H.807V13.906H2.579Zm13.8,10.493,1.095.575a5.97,5.97,0,0,1-1.244,1.707,4.942,4.942,0,0,1-1.588.988,5.539,5.539,0,0,1-2,.339,4.824,4.824,0,0,1-3.863-1.619,5.462,5.462,0,0,1-1.393-3.66,5.4,5.4,0,0,1,1.179-3.423,4.821,4.821,0,0,1,4-1.911A4.979,4.979,0,0,1,16.7,15.6a5.465,5.465,0,0,1,1.114,3.451H8.73a4.11,4.11,0,0,0,1.124,2.883,3.585,3.585,0,0,0,2.684,1.125,4.315,4.315,0,0,0,1.5-.268,3.945,3.945,0,0,0,1.24-.712A6.056,6.056,0,0,0,16.384,20.651Zm0-2.718a4.308,4.308,0,0,0-.757-1.661,3.582,3.582,0,0,0-1.314-1,4.026,4.026,0,0,0-1.718-.38,3.7,3.7,0,0,0-2.554.956,4.318,4.318,0,0,0-1.18,2.087ZM30.031,16l-1.03.64a4.314,4.314,0,0,0-3.642-1.772A4.213,4.213,0,0,0,22.3,16.057a3.871,3.871,0,0,0-1.219,2.882,4.091,4.091,0,0,0,.561,2.076,3.93,3.93,0,0,0,1.538,1.51A4.652,4.652,0,0,0,29,21.291l1.03.677a4.863,4.863,0,0,1-1.944,1.691,6.208,6.208,0,0,1-2.779.6,5.489,5.489,0,0,1-3.971-1.521,4.95,4.95,0,0,1-1.577-3.7,5.287,5.287,0,0,1,.738-2.723,5.2,5.2,0,0,1,2.027-1.962,5.914,5.914,0,0,1,2.885-.705,6.161,6.161,0,0,1,1.934.306,5.379,5.379,0,0,1,1.582.8A4.339,4.339,0,0,1,30.031,16Zm2.5-5.993h1.3v5.706a5.521,5.521,0,0,1,1.735-1.554,4.222,4.222,0,0,1,2.05-.515,3.579,3.579,0,0,1,2.009.575,3.431,3.431,0,0,1,1.294,1.545,8.188,8.188,0,0,1,.417,3.038V24h-1.3V19.185a12.311,12.311,0,0,0-.139-2.329,2.639,2.639,0,0,0-.877-1.508,2.6,2.6,0,0,0-1.665-.506,3.2,3.2,0,0,0-2.111.779,3.651,3.651,0,0,0-1.229,1.93,13.338,13.338,0,0,0-.186,2.746V24h-1.3Zm21,0v1.271a3.213,3.213,0,0,0-1.225-.306,1.192,1.192,0,0,0-.631.153.677.677,0,0,0-.315.353,4.88,4.88,0,0,0-.065,1.062v1.364H53.4v1.123H51.292L51.285,24h-1.3V15.029H48.66V13.906h1.327V12.329a4.281,4.281,0,0,1,.2-1.549,1.591,1.591,0,0,1,.677-.747,2.228,2.228,0,0,1,1.155-.283A5.488,5.488,0,0,1,53.53,10.01Zm6.587,3.637a5,5,0,0,1,3.866,1.688,5.419,5.419,0,0,1-.079,7.343,5.336,5.336,0,0,1-7.584,0,5.408,5.408,0,0,1-.079-7.334A5,5,0,0,1,60.117,13.646Zm0,1.271a3.747,3.747,0,0,0-2.784,1.2,4,4,0,0,0-1.164,2.895A4.1,4.1,0,0,0,56.7,21.05a3.76,3.76,0,0,0,1.434,1.461,4.076,4.076,0,0,0,3.966,0,3.76,3.76,0,0,0,1.434-1.461,4.1,4.1,0,0,0,.531-2.041,3.992,3.992,0,0,0-1.168-2.895A3.752,3.752,0,0,0,60.113,14.917Zm7.176-1.011h1.327v1.475a4.658,4.658,0,0,1,1.252-1.3,2.47,2.47,0,0,1,1.373-.431,2.369,2.369,0,0,1,1.15.343l-.677,1.095a1.806,1.806,0,0,0-.687-.176,1.878,1.878,0,0,0-1.252.533,3.373,3.373,0,0,0-.918,1.656,15.881,15.881,0,0,0-.241,3.488V24H67.289ZM79.205,9.75a1.072,1.072,0,0,1,0,2.143,1.075,1.075,0,0,1-1.062-1.067,1.039,1.039,0,0,1,.314-.761A1.019,1.019,0,0,1,79.205,9.75Zm-.645,4.156h1.3V24h-1.3Zm3.989,0h1.3V15.65a5.029,5.029,0,0,1,1.393-1.41,3.95,3.95,0,0,1,2.071-.594,3.448,3.448,0,0,1,1.393.288,3,3,0,0,1,1.077.765,4.1,4.1,0,0,1,.724,1.368,4.793,4.793,0,0,1,1.62-1.8,3.832,3.832,0,0,1,2.092-.617,3.273,3.273,0,0,1,1.846.529,3.153,3.153,0,0,1,1.189,1.475,7.871,7.871,0,0,1,.389,2.839V24H96.317V18.489a7.2,7.2,0,0,0-.231-2.231,2.009,2.009,0,0,0-.791-.979,2.362,2.362,0,0,0-1.336-.371,2.906,2.906,0,0,0-1.725.557,3.2,3.2,0,0,0-1.142,1.484,9.408,9.408,0,0,0-.361,3.1V24h-1.3V18.833a8.866,8.866,0,0,0-.227-2.482,2.078,2.078,0,0,0-.793-1.048,2.294,2.294,0,0,0-1.345-.394,2.9,2.9,0,0,0-1.684.543,3.213,3.213,0,0,0-1.16,1.461,7.876,7.876,0,0,0-.376,2.811V24h-1.3Zm17.85,0h1.3v1.855a5.213,5.213,0,0,1,1.77-1.586,4.707,4.707,0,0,1,2.234-.529,4.984,4.984,0,0,1,3.679,1.549,5.118,5.118,0,0,1,1.529,3.729,5.213,5.213,0,0,1-1.515,3.781,5.1,5.1,0,0,1-5.871,1.053,5.579,5.579,0,0,1-1.826-1.494v5.427h-1.3Zm5.2.993a3.815,3.815,0,0,0-2.837,1.177A4.019,4.019,0,0,0,101.605,19a4.156,4.156,0,0,0,.514,2.066,3.749,3.749,0,0,0,1.472,1.455,4.072,4.072,0,0,0,2.022.538,3.814,3.814,0,0,0,1.967-.542,3.979,3.979,0,0,0,1.467-1.515,4.093,4.093,0,0,0,0-4.077,3.911,3.911,0,0,0-3.457-2.029Zm17.8-.993V24h-1.28V22.265a5.567,5.567,0,0,1-1.832,1.494,5.118,5.118,0,0,1-5.882-1.053,5.21,5.21,0,0,1-1.517-3.781,5.115,5.115,0,0,1,1.531-3.729,4.991,4.991,0,0,1,3.683-1.549,4.763,4.763,0,0,1,2.25.529,5.12,5.12,0,0,1,1.767,1.586V13.906Zm-5.191.993a3.917,3.917,0,0,0-3.461,2.029,4.089,4.089,0,0,0,0,4.077,3.981,3.981,0,0,0,1.469,1.515,3.838,3.838,0,0,0,1.978.542,4.055,4.055,0,0,0,2.02-.538,3.759,3.759,0,0,0,1.469-1.455A4.152,4.152,0,0,0,122.2,19a4.017,4.017,0,0,0-1.154-2.928A3.821,3.821,0,0,0,118.207,14.9Zm17.91,1.1-1.03.64a4.314,4.314,0,0,0-3.642-1.772,4.213,4.213,0,0,0-3.063,1.186,3.871,3.871,0,0,0-1.219,2.882,4.091,4.091,0,0,0,.561,2.076,3.93,3.93,0,0,0,1.538,1.51,4.652,4.652,0,0,0,5.824-1.234l1.03.677a4.863,4.863,0,0,1-1.944,1.691,6.208,6.208,0,0,1-2.779.6,5.489,5.489,0,0,1-3.971-1.521,4.95,4.95,0,0,1-1.577-3.7,5.287,5.287,0,0,1,.738-2.723,5.2,5.2,0,0,1,2.027-1.962,5.914,5.914,0,0,1,2.885-.705,6.161,6.161,0,0,1,1.934.306,5.379,5.379,0,0,1,1.582.8A4.339,4.339,0,0,1,136.117,16Zm3.627-5.845h1.3v3.748h2.06v1.123h-2.06V24h-1.3V15.029h-1.772V13.906h1.772Z" transform="translate(81.25 50)" fill="#2a3c4a"/>
      <path id="Path_1" data-name="Path 1" d="M45.48,55.44a11.67,11.67,0,0,1-8.34-3.55L21,35.79A11.809,11.809,0,1,1,36.9,18.328,12,12,0,0,1,38.71,17.1l2.42,4.37a6.67,6.67,0,0,0-1.54,1.17L36.9,25.32l-2.7-2.7a6.813,6.813,0,1,0-9.63,9.64L40.69,48.37a6.51,6.51,0,0,0,9.17.32l2.1-2,3.44,3.64-2.11,2a11.32,11.32,0,0,1-7.81,3.11Z" transform="translate(0 23)" fill="#3c658b"/>
      <path id="Path_2" data-name="Path 2" d="M18.64,50.19,3.08,35.52A10.31,10.31,0,0,1,3,20.88L23.16.73,26.7,4.27,6.55,24.42a5.31,5.31,0,0,0,0,7.51L22.07,46.55Z" transform="translate(0 23)" fill="#e3b05b"/>
      <path id="Path_3" data-name="Path 3" d="M28.6,55.27a11.48,11.48,0,0,1-7.89-3.13l-2.07-2,3.43-3.64,2.07,2a6.37,6.37,0,0,0,8.91-.1L49.22,32.28a6.81,6.81,0,0,0-4.8-11.64,6.931,6.931,0,0,0-3.291.831L38.72,17.1a11.81,11.81,0,0,1,14,18.71L36.61,51.91a11,11,0,0,1-8.01,3.36Z" transform="translate(0 23)" fill="#c3535e"/>
      <path id="Path_4" data-name="Path 4" d="M55.39,50.34,52,46.7,67.48,32.06A5.24,5.24,0,0,0,69,28.36a5.3,5.3,0,0,0-1.56-3.76L47.29,4.45,50.83.92,71,21.06a10.3,10.3,0,0,1,0,14.59Z" transform="translate(0 23)" fill="#8ac5d1"/>
      <path id="Path_5" data-name="Path 5" d="M18,11.92a2.51,2.51,0,0,1-1.77-4.27L23.16.73A2.5,2.5,0,1,1,26.7,4.27l-6.91,6.91a2.5,2.5,0,0,1-1.79.74Z" transform="translate(0 23)" fill="#e3b05b"/>
      <path id="Path_6" data-name="Path 6" d="M55,11.14a2.48,2.48,0,0,1-1.76-.73l-6-6A2.5,2.5,0,1,1,50.83.92l6,6A2.5,2.5,0,0,1,55,11.14Z" transform="translate(0 23)" fill="#8ac5d1"/>
    </g>
  </g>
</svg>
