<svg xmlns="http://www.w3.org/2000/svg" width="128.769" height="112.673" viewBox="0 0 128.769 112.673"><defs><style>.a{fill:rgba(0,0,0,0.35);}</style></defs><path class="a" d="M128.769,30.418v72.432A12.075,12.075,0,0,1,116.7,114.923H12.072A12.075,12.075,0,0,1,0,102.851V30.418A12.075,12.075,0,0,1,12.072,18.346H34.2L37.3,10.072A12.055,12.055,0,0,1,48.59,2.25H80.153a12.055,12.055,0,0,1,11.292,7.822l3.119,8.274H116.7A12.075,12.075,0,0,1,128.769,30.418Zm-34.2,36.216a30.18,30.18,0,1,0-30.18,30.18A30.2,30.2,0,0,0,94.565,66.634Zm-8.048,0A22.132,22.132,0,1,1,64.384,44.5,22.165,22.165,0,0,1,86.516,66.634Z" transform="translate(0 -2.25)"/></svg>