<svg xmlns="http://www.w3.org/2000/svg" width="218.086" height="45.146" viewBox="0 0 218.086 45.146"><defs><style>.a{fill:#fff;}</style></defs><path class="a" d="M34.922-1.494Q30.322.732,22.91.732q-9.668,0-15.205-5.684T2.168-20.1q0-10.078,6.226-16.348t16.157-6.27a30.216,30.216,0,0,1,10.371,1.553v9.111a18.377,18.377,0,0,0-9.609-2.52,12.747,12.747,0,0,0-9.551,3.721q-3.633,3.721-3.633,10.078,0,6.094,3.428,9.712a12.109,12.109,0,0,0,9.229,3.618,19.684,19.684,0,0,0,10.137-2.7ZM70.137,0H60.908V-17.051q0-6.592-4.8-6.592A4.918,4.918,0,0,0,52.119-21.8,7.119,7.119,0,0,0,50.6-17.109V0H41.338V-44.414H50.6v18.867h.117a10.52,10.52,0,0,1,9.229-5.186q10.2,0,10.2,12.3Zm34.277-12.363H84.844q.469,6.533,8.232,6.533a16.072,16.072,0,0,0,8.7-2.344v6.68A22.858,22.858,0,0,1,90.967.732Q83.7.732,79.688-3.3T75.674-14.531q0-7.471,4.336-11.836a14.445,14.445,0,0,1,10.664-4.365q6.563,0,10.151,3.9t3.589,10.576ZM95.83-18.047q0-6.445-5.215-6.445a4.979,4.979,0,0,0-3.853,1.846,8.377,8.377,0,0,0-1.978,4.6ZM132.656-1.084Q129.521.732,123.6.732a15.31,15.31,0,0,1-11.191-4.189,14.469,14.469,0,0,1-4.277-10.811q0-7.646,4.585-12.056t12.261-4.409q5.3,0,7.676,1.406v7.852a10.554,10.554,0,0,0-6.475-2.168,8.531,8.531,0,0,0-6.313,2.329,8.691,8.691,0,0,0-2.329,6.431,8.549,8.549,0,0,0,2.227,6.255,8.183,8.183,0,0,0,6.123,2.271,12.219,12.219,0,0,0,6.768-2.168ZM168.779,0h-11.1L148.1-14.883h-.117V0h-9.258V-44.414h9.258v28.271h.117L157.031-30h10.986L157.266-15.908Zm13.857,0h-9.463V-42.012h9.463Zm37.617,0h-9.229V-16.67q0-6.973-4.98-6.973A4.942,4.942,0,0,0,202.09-21.8a7.031,7.031,0,0,0-1.553,4.688V0h-9.258V-30h9.258v4.746h.117a10.609,10.609,0,0,1,9.639-5.479q9.961,0,9.961,12.363Z" transform="translate(-2.168 44.414)"/></svg>