<svg xmlns="http://www.w3.org/2000/svg" width="20.938" height="22.683" viewBox="0 0 20.938 22.683"><defs><style>.a{fill:#043163;}</style></defs><path class="a" d="M29.243,10.1a.564.564,0,0,0,.795,0l.795-.795a.564.564,0,0,0,0-.795L29.039,6.722a.564.564,0,0,0-.795,0l-.795.795a.564.564,0,0,0,0,.795Z" transform="translate(-10.495 -6.15)"/><path class="a" d="M5.963,10.1a.564.564,0,0,0,.795,0L8.55,8.311a.564.564,0,0,0,0-.795l-.795-.795a.564.564,0,0,0-.795,0L5.168,8.508a.564.564,0,0,0,0,.795Z" transform="translate(-5 -6.15)"/><path class="a" d="M16.278,5.2V4.247a.875.875,0,0,0-.872-.872h-.872a.875.875,0,0,0-.872.872V5.2a10.469,10.469,0,1,0,2.617,0Zm-.545,11.958v1.047a.763.763,0,1,1-1.527,0V17.159a1.747,1.747,0,0,1,0-3.141V8.61a.763.763,0,1,1,1.527,0v5.409a1.747,1.747,0,0,1,0,3.141Z" transform="translate(-4.5 -3.375)"/></svg>